<?xml version="1.0" encoding="UTF-8"?>
<svg id="Capa_1" xmlns="http://www.w3.org/2000/svg" viewBox="0 0 35.6 35.6">
  <defs>
    <style>
      .cls-1 {
        fill: #0d3b23;
      }
    </style>
  </defs>
  <path class="cls-1" d="M27.2,6.4c-1.2,0-2.1.9-2.1,2.1s.9,2.1,2.1,2.1,2.1-.9,2.1-2.1-.9-2.1-2.1-2.1Z"/>
  <path class="cls-1" d="M18,9c-4.8,0-8.8,3.9-8.8,8.8s3.9,8.8,8.8,8.8,8.8-3.9,8.8-8.8-3.9-8.8-8.8-8.8ZM18,23.4c-3.1,0-5.6-2.5-5.6-5.6s2.5-5.6,5.6-5.6,5.6,2.5,5.6,5.6-2.5,5.6-5.6,5.6Z"/>
  <path class="cls-1" d="M24.9,35.6h-14.2c-5.9,0-10.7-4.8-10.7-10.7v-14.2C0,4.8,4.8,0,10.7,0h14.2c5.9,0,10.7,4.8,10.7,10.7v14.2c0,5.9-4.8,10.7-10.7,10.7ZM10.7,3.4c-4.1,0-7.3,3.3-7.3,7.3v14.2c0,4.1,3.3,7.3,7.3,7.3h14.2c4.1,0,7.3-3.3,7.3-7.3v-14.2c0-4.1-3.3-7.3-7.3-7.3h-14.2Z"/>
</svg>