<?xml version="1.0" encoding="UTF-8"?>
<svg id="Capa_1" xmlns="http://www.w3.org/2000/svg" viewBox="0 0 500 119.7">
  <defs>
    <style>
      .cls-1 {
        fill: #46bfe4;
      }

      .cls-2 {
        fill: #0d3b23;
      }

      .cls-3 {
        fill: #4c86c6;
      }
    </style>
  </defs>
  <g>
    <path class="cls-2" d="M0,3.1v-1.8h34.9c13.3,0,21.4,7,21.4,18.5s-6.5,17-16.7,18.7l.7.4c2.8,1.6,5.5,4.4,7,7.2l6.9,12.9c1,2,3,3.9,4.9,5l2,1.1v1.9h-16c-2.1,0-4.3-1.4-5.3-3.3l-13.1-24.9h-7.7v19.8c0,2.2,1.3,4.4,2.9,5.8l.9.6v1.9H0v-1.9l.8-.6c1.8-1.4,3-3.6,3-5.8V9.6c0-2.2-1.2-4.5-3-5.8l-.8-.7ZM18.7,6.9v26.3h9.5c7.9,0,12.9-5.1,12.9-13.3s-4.8-12.9-12.9-12.9h-9.5Z"/>
    <path class="cls-2" d="M83.6,65v1.9h-22.5v-1.9l.8-.6c1.8-1.4,3-3.6,3-5.8v-27.4c0-2.2-1.2-4.5-3-5.8l-.8-.6v-1.9l15-2.8h3.7v38.6c0,2.2,1.3,4.4,2.9,5.8l.9.6ZM70.8,11.6h-5.8l5.6-11.6,8.6.9-8.4,10.7Z"/>
    <path class="cls-2" d="M109.8,19c14.6,0,24.1,9.7,24.1,24.1s-9.8,24.7-24.5,24.7-24.3-9.9-24.3-24.4,10-24.4,24.7-24.4ZM109.4,62.2c5.7,0,9.5-7.5,9.5-18.7s-3.8-18.7-9.4-18.7-9.3,7.5-9.3,18.9,3.7,18.6,9.2,18.6Z"/>
    <path class="cls-2" d="M180.2,3.1v-1.8h10.7l22.4,57.6c.9,2,2.6,4.1,4.5,5.3l1.7.9v1.9h-24.6v-1.9l.8-.5c1.6-1.4,2.4-3.6,1.4-5.6l-2.1-5.3h-25.2l-2.2,5.3c-.7,2-.2,4.3,1.4,5.6l.8.5v1.9h-14.6v-1.9l1.7-1c1.8-1.1,3.7-3.2,4.4-5.2l19.8-49.5c.8-2.1.4-4.4-1.1-6.2h0ZM193,47.9l-10.3-26.4-10.5,26.4h20.8Z"/>
    <path class="cls-2" d="M242.5,65v1.9h-22.5v-1.9l.8-.6c1.8-1.4,3-3.6,3-5.8V12.4c0-2.2-1.2-4.5-3-5.8l-.8-.7v-1.8l15-2.8h3.7v57.3c0,2.2,1.3,4.4,2.9,5.8l.9.6Z"/>
    <path class="cls-2" d="M289.7,34.6c0,10.2-8.8,17.9-20.7,17.9s-5-.4-7.6-1c2.3,4.4,6.2,7,11.4,7,8.7,0,14-7.2,14.9-10.3h1.9c-2.9,11.8-10.6,19.6-22.6,19.6s-22.9-9.3-22.9-23.6,10.6-25.2,26.3-25.2,19.3,7.3,19.3,15.6ZM270,24.7c-5.4,0-10.9,6.9-10.9,16.9s.4,4.9.9,7c19-5.4,18.7-23.9,10-23.9Z"/>
    <path class="cls-2" d="M315.7,19c1.8,0,3.5,0,5.1.5-.9-7.1,4.1-12.9,11-12.4,6.8.5,8,6.5,6.1,9.4-1,1.5-2.6,2-4.1,2s-2.4-.4-3.1-.5c-.6-.2-1.2-.3-1.7-.3-1.9,0-3.2,1.4-4.1,2.7,8.6,2.7,13.9,9.3,13.9,18s-9.3,20.1-23.4,20.1-9.4-1.1-13.1-3c-.3,1.6,2.7,3.2,9.5,3.6,10.9.8,29.6-1.3,29.6,12.1s-9.1,15.4-23.1,15.4-24.9-3.9-26.6-14.4c0-.4,0-.6,0-1,0-3.8,3.1-6.8,6.9-6.8s6.8,3,6.8,6.8-1.4,5-3.7,6.1c3,2.2,7.5,3.6,13.1,3.6s11.4-2.1,11.4-6.2c0-6.4-11.4-7-18.9-8.6-11.1-2.6-12.8-7.9-7.8-12.5-4.7-3.6-7.5-8.9-7.5-15,0-11.7,9.9-19.6,23.7-19.6ZM315.5,52.9c5.1,0,8.4-5.9,8.4-14s-3.6-14.1-8.5-14.1-8.4,5.6-8.4,13.9,3.5,14.3,8.5,14.3Z"/>
    <path class="cls-2" d="M364.6,65v1.9h-22.5v-1.9l.8-.6c1.8-1.4,3-3.6,3-5.8v-27.4c0-2.2-1.2-4.5-3-5.8l-.8-.6v-1.9l15-2.8h3.7v3.8c2.5-3,6.3-4.8,10.4-4.8,8.2,0,12.6,7.2,9.1,13.3-1.8,3-4.9,4.3-8,4.3s-3.5-.5-5-1.3c-1.7-1-4.3-3.2-3.8-8.5-1.4.3-2.6,1.7-2.8,4.9v26.8c0,2.2,1.3,4.4,2.9,5.8l.9.6Z"/>
    <path class="cls-2" d="M427.8,34.6c0,10.2-8.8,17.9-20.7,17.9s-5-.4-7.6-1c2.3,4.4,6.2,7,11.4,7,8.7,0,14-7.2,14.9-10.3h1.9c-2.9,11.8-10.6,19.6-22.6,19.6s-22.9-9.3-22.9-23.6,10.6-25.2,26.3-25.2,19.3,7.3,19.3,15.6ZM408,24.7c-5.4,0-10.9,6.9-10.9,16.9s.4,4.9.9,7c19-5.4,18.7-23.9,10-23.9Z"/>
    <path class="cls-2" d="M475.3,65v1.9h-22.5v-1.9l.8-.6c1.8-1.4,3-3.6,3-5.8V9.6c0-2.2-1.2-4.5-3-5.8l-.8-.7v-1.8h22.5v1.8l-.9.7c-1.6,1.3-2.9,3.6-2.9,5.8v49c0,2.2,1.3,4.4,2.9,5.8l.9.6Z"/>
    <path class="cls-2" d="M500,65v1.9h-22.5v-1.9l.8-.6c1.8-1.4,3-3.6,3-5.8V9.6c0-2.2-1.2-4.5-3-5.8l-.8-.7v-1.8h22.5v1.8l-.9.7c-1.6,1.3-2.9,3.6-2.9,5.8v49c0,2.2,1.3,4.4,2.9,5.8l.9.6Z"/>
  </g>
  <g>
    <path class="cls-3" d="M398.2,74.7c-1.7,12.9-13.3,29.6-47.4,37.3-22.3,5-43.4,3.4-66.5-.2-23.1-3.6-41.8-9.9-64.2-14.6-41.7-8.8-88.7,5.5-118.3,22.5,14.8-10,30.4-19.8,49.6-26.9,19.2-7.1,42.7-11.2,65-8.5,21.3,2.5,39.3,10.6,59.8,14.9,64.3,13.6,108.4-7.6,122.1-24.5Z"/>
    <path class="cls-1" d="M289,116.7c-40,12.1-89.3-29.4-159.8,2,5.9-6.6,21.2-13,35-16.1,13.8-3.2,29.2-4.4,43.6-2.3,11.1,1.6,21,5.1,31.3,7.9,15.4,4.2,33.9,7.8,49.9,8.5Z"/>
  </g>
</svg>