<?xml version="1.0" encoding="UTF-8"?>
<svg xmlns="http://www.w3.org/2000/svg" version="1.1" viewBox="0 0 448 384">
  <defs>
    <style>
      .cls-1 {
        fill: #0d3b23;
      }
    </style>
  </defs>
  <!-- Generator: Adobe Illustrator 28.7.7, SVG Export Plug-In . SVG Version: 1.2.0 Build 194)  -->
  <g>
    <g id="Capa_1">
      <path class="cls-1" d="M0,32C0,14.3,14.3,0,32,0h384c17.7,0,32,14.3,32,32s-14.3,32-32,32H32C14.3,64,0,49.7,0,32ZM0,192c0-17.7,14.3-32,32-32h384c17.7,0,32,14.3,32,32s-14.3,32-32,32H32c-17.7,0-32-14.3-32-32ZM448,352c0,17.7-14.3,32-32,32H32c-17.7,0-32-14.3-32-32s14.3-32,32-32h384c17.7,0,32,14.3,32,32Z"/>
    </g>
  </g>
</svg>